<mxfile host="app.diagrams.net" agent="Mozilla/5.0 (Windows NT 10.0; Win64; x64) AppleWebKit/537.36 (KHTML, like Gecko) Chrome/130.0.0.0 Safari/537.36" version="24.8.3">
  <diagram name="Page-1" id="kKGzz5kkBFm7OB60qcjx">
    <mxGraphModel dx="1444" dy="833" grid="1" gridSize="10" guides="1" tooltips="1" connect="1" arrows="1" fold="1" page="1" pageScale="1" pageWidth="827" pageHeight="1169" math="0" shadow="0">
      <root>
        <mxCell id="0" />
        <mxCell id="1" parent="0" />
        <mxCell id="DzmFbw8f4VmbmkQMaoc1-1" value="" style="endArrow=none;dashed=1;html=1;rounded=0;" edge="1" parent="1">
          <mxGeometry width="50" height="50" relative="1" as="geometry">
            <mxPoint x="160" y="760" as="sourcePoint" />
            <mxPoint x="160" y="60" as="targetPoint" />
          </mxGeometry>
        </mxCell>
        <mxCell id="DzmFbw8f4VmbmkQMaoc1-2" value="" style="html=1;verticalAlign=bottom;labelBackgroundColor=none;endArrow=block;endFill=1;rounded=0;" edge="1" parent="1" target="DzmFbw8f4VmbmkQMaoc1-4">
          <mxGeometry width="160" relative="1" as="geometry">
            <mxPoint x="160" y="80" as="sourcePoint" />
            <mxPoint x="340" y="80" as="targetPoint" />
          </mxGeometry>
        </mxCell>
        <mxCell id="DzmFbw8f4VmbmkQMaoc1-6" value="printWeekly(spendings)" style="edgeLabel;html=1;align=center;verticalAlign=middle;resizable=0;points=[];" vertex="1" connectable="0" parent="DzmFbw8f4VmbmkQMaoc1-2">
          <mxGeometry x="0.1749" y="-1" relative="1" as="geometry">
            <mxPoint x="-31" y="-11" as="offset" />
          </mxGeometry>
        </mxCell>
        <mxCell id="DzmFbw8f4VmbmkQMaoc1-3" value="&amp;lt;&amp;lt;class&amp;gt;&amp;gt;&lt;div&gt;:Ui&lt;/div&gt;" style="shape=umlLifeline;perimeter=lifelinePerimeter;whiteSpace=wrap;html=1;container=1;dropTarget=0;collapsible=0;recursiveResize=0;outlineConnect=0;portConstraint=eastwest;newEdgeStyle={&quot;curved&quot;:0,&quot;rounded&quot;:0};" vertex="1" parent="1">
          <mxGeometry x="270" y="20" width="100" height="740" as="geometry" />
        </mxCell>
        <mxCell id="DzmFbw8f4VmbmkQMaoc1-4" value="" style="html=1;points=[[0,0,0,0,5],[0,1,0,0,-5],[1,0,0,0,5],[1,1,0,0,-5]];perimeter=orthogonalPerimeter;outlineConnect=0;targetShapes=umlLifeline;portConstraint=eastwest;newEdgeStyle={&quot;curved&quot;:0,&quot;rounded&quot;:0};" vertex="1" parent="DzmFbw8f4VmbmkQMaoc1-3">
          <mxGeometry x="45" y="60" width="10" height="660" as="geometry" />
        </mxCell>
        <mxCell id="DzmFbw8f4VmbmkQMaoc1-15" value="getSundayDate(currDate:LocalDate)" style="html=1;align=left;spacingLeft=2;endArrow=block;rounded=0;edgeStyle=orthogonalEdgeStyle;curved=0;rounded=0;" edge="1" target="DzmFbw8f4VmbmkQMaoc1-16" parent="DzmFbw8f4VmbmkQMaoc1-3">
          <mxGeometry relative="1" as="geometry">
            <mxPoint x="55" y="270" as="sourcePoint" />
            <Array as="points">
              <mxPoint x="85" y="270" />
              <mxPoint x="85" y="291" />
            </Array>
          </mxGeometry>
        </mxCell>
        <mxCell id="DzmFbw8f4VmbmkQMaoc1-16" value="" style="html=1;points=[[0,0,0,0,5],[0,1,0,0,-5],[1,0,0,0,5],[1,1,0,0,-5]];perimeter=orthogonalPerimeter;outlineConnect=0;targetShapes=umlLifeline;portConstraint=eastwest;newEdgeStyle={&quot;curved&quot;:0,&quot;rounded&quot;:0};" vertex="1" parent="DzmFbw8f4VmbmkQMaoc1-3">
          <mxGeometry x="50" y="291" width="10" height="40" as="geometry" />
        </mxCell>
        <mxCell id="DzmFbw8f4VmbmkQMaoc1-17" value="" style="html=1;align=left;spacingLeft=2;endArrow=block;rounded=0;edgeStyle=orthogonalEdgeStyle;curved=0;rounded=0;dashed=1;" edge="1" parent="DzmFbw8f4VmbmkQMaoc1-3">
          <mxGeometry relative="1" as="geometry">
            <mxPoint x="60" y="331" as="sourcePoint" />
            <Array as="points">
              <mxPoint x="84" y="331" />
              <mxPoint x="84" y="352" />
            </Array>
            <mxPoint x="55" y="352" as="targetPoint" />
          </mxGeometry>
        </mxCell>
        <mxCell id="DzmFbw8f4VmbmkQMaoc1-18" value="sunday:LocalDate" style="edgeLabel;html=1;align=center;verticalAlign=middle;resizable=0;points=[];" vertex="1" connectable="0" parent="DzmFbw8f4VmbmkQMaoc1-17">
          <mxGeometry x="-0.0341" relative="1" as="geometry">
            <mxPoint x="49" y="-2" as="offset" />
          </mxGeometry>
        </mxCell>
        <mxCell id="DzmFbw8f4VmbmkQMaoc1-45" value="printWithTab(filteredListString)" style="html=1;align=left;spacingLeft=2;endArrow=block;rounded=0;edgeStyle=orthogonalEdgeStyle;curved=0;rounded=0;" edge="1" target="DzmFbw8f4VmbmkQMaoc1-46" parent="DzmFbw8f4VmbmkQMaoc1-3">
          <mxGeometry relative="1" as="geometry">
            <mxPoint x="55" y="577" as="sourcePoint" />
            <Array as="points">
              <mxPoint x="85" y="577" />
              <mxPoint x="85" y="598" />
            </Array>
          </mxGeometry>
        </mxCell>
        <mxCell id="DzmFbw8f4VmbmkQMaoc1-46" value="" style="html=1;points=[[0,0,0,0,5],[0,1,0,0,-5],[1,0,0,0,5],[1,1,0,0,-5]];perimeter=orthogonalPerimeter;outlineConnect=0;targetShapes=umlLifeline;portConstraint=eastwest;newEdgeStyle={&quot;curved&quot;:0,&quot;rounded&quot;:0};" vertex="1" parent="DzmFbw8f4VmbmkQMaoc1-3">
          <mxGeometry x="50" y="598" width="10" height="40" as="geometry" />
        </mxCell>
        <mxCell id="DzmFbw8f4VmbmkQMaoc1-47" value="" style="html=1;align=left;spacingLeft=2;endArrow=block;rounded=0;edgeStyle=orthogonalEdgeStyle;curved=0;rounded=0;dashed=1;" edge="1" parent="DzmFbw8f4VmbmkQMaoc1-3">
          <mxGeometry relative="1" as="geometry">
            <mxPoint x="60" y="638" as="sourcePoint" />
            <Array as="points">
              <mxPoint x="84" y="638" />
              <mxPoint x="84" y="659" />
            </Array>
            <mxPoint x="55" y="659" as="targetPoint" />
          </mxGeometry>
        </mxCell>
        <mxCell id="DzmFbw8f4VmbmkQMaoc1-5" value=":StringBuilder" style="shape=umlLifeline;perimeter=lifelinePerimeter;whiteSpace=wrap;html=1;container=1;dropTarget=0;collapsible=0;recursiveResize=0;outlineConnect=0;portConstraint=eastwest;newEdgeStyle={&quot;curved&quot;:0,&quot;rounded&quot;:0};" vertex="1" parent="1">
          <mxGeometry x="509" y="80" width="100" height="540" as="geometry" />
        </mxCell>
        <mxCell id="DzmFbw8f4VmbmkQMaoc1-8" value="" style="html=1;points=[[0,0,0,0,5],[0,1,0,0,-5],[1,0,0,0,5],[1,1,0,0,-5]];perimeter=orthogonalPerimeter;outlineConnect=0;targetShapes=umlLifeline;portConstraint=eastwest;newEdgeStyle={&quot;curved&quot;:0,&quot;rounded&quot;:0};" vertex="1" parent="DzmFbw8f4VmbmkQMaoc1-5">
          <mxGeometry x="45" y="40" width="10" height="40" as="geometry" />
        </mxCell>
        <mxCell id="DzmFbw8f4VmbmkQMaoc1-7" value="" style="html=1;verticalAlign=bottom;labelBackgroundColor=none;endArrow=block;endFill=1;rounded=0;" edge="1" parent="1">
          <mxGeometry width="160" relative="1" as="geometry">
            <mxPoint x="325" y="101.99999999999994" as="sourcePoint" />
            <mxPoint x="509" y="102" as="targetPoint" />
          </mxGeometry>
        </mxCell>
        <mxCell id="DzmFbw8f4VmbmkQMaoc1-9" value="" style="html=1;verticalAlign=bottom;labelBackgroundColor=none;endArrow=block;endFill=1;dashed=1;rounded=0;" edge="1" parent="1" source="DzmFbw8f4VmbmkQMaoc1-8">
          <mxGeometry width="160" relative="1" as="geometry">
            <mxPoint x="479" y="160" as="sourcePoint" />
            <mxPoint x="325" y="160" as="targetPoint" />
          </mxGeometry>
        </mxCell>
        <mxCell id="DzmFbw8f4VmbmkQMaoc1-10" value="filteredListString:StringBuilder" style="edgeLabel;html=1;align=center;verticalAlign=middle;resizable=0;points=[];" vertex="1" connectable="0" parent="DzmFbw8f4VmbmkQMaoc1-9">
          <mxGeometry x="-0.1682" y="-2" relative="1" as="geometry">
            <mxPoint x="-15" y="-8" as="offset" />
          </mxGeometry>
        </mxCell>
        <mxCell id="DzmFbw8f4VmbmkQMaoc1-11" value="" style="html=1;points=[[0,0,0,0,5],[0,1,0,0,-5],[1,0,0,0,5],[1,1,0,0,-5]];perimeter=orthogonalPerimeter;outlineConnect=0;targetShapes=umlLifeline;portConstraint=eastwest;newEdgeStyle={&quot;curved&quot;:0,&quot;rounded&quot;:0};" vertex="1" parent="1">
          <mxGeometry x="320" y="200" width="10" height="40" as="geometry" />
        </mxCell>
        <mxCell id="DzmFbw8f4VmbmkQMaoc1-12" value="getMondayDate(currDate:LocalDate)" style="html=1;align=left;spacingLeft=2;endArrow=block;rounded=0;edgeStyle=orthogonalEdgeStyle;curved=0;rounded=0;" edge="1" target="DzmFbw8f4VmbmkQMaoc1-11" parent="1">
          <mxGeometry relative="1" as="geometry">
            <mxPoint x="325" y="179" as="sourcePoint" />
            <Array as="points">
              <mxPoint x="355" y="179" />
              <mxPoint x="355" y="200" />
            </Array>
          </mxGeometry>
        </mxCell>
        <mxCell id="DzmFbw8f4VmbmkQMaoc1-13" value="" style="html=1;align=left;spacingLeft=2;endArrow=block;rounded=0;edgeStyle=orthogonalEdgeStyle;curved=0;rounded=0;dashed=1;" edge="1" parent="1" target="DzmFbw8f4VmbmkQMaoc1-4">
          <mxGeometry relative="1" as="geometry">
            <mxPoint x="330" y="240" as="sourcePoint" />
            <Array as="points">
              <mxPoint x="354" y="240" />
              <mxPoint x="354" y="261" />
            </Array>
            <mxPoint x="335" y="261" as="targetPoint" />
          </mxGeometry>
        </mxCell>
        <mxCell id="DzmFbw8f4VmbmkQMaoc1-14" value="monday:LocalDate" style="edgeLabel;html=1;align=center;verticalAlign=middle;resizable=0;points=[];" vertex="1" connectable="0" parent="DzmFbw8f4VmbmkQMaoc1-13">
          <mxGeometry x="-0.0341" relative="1" as="geometry">
            <mxPoint x="52" y="-2" as="offset" />
          </mxGeometry>
        </mxCell>
        <mxCell id="DzmFbw8f4VmbmkQMaoc1-20" value="Date of Monday of current week" style="shape=note2;boundedLbl=1;whiteSpace=wrap;html=1;size=17;verticalAlign=top;align=center;flipV=1;" vertex="1" parent="1">
          <mxGeometry x="170" y="150" width="120" height="70" as="geometry" />
        </mxCell>
        <mxCell id="DzmFbw8f4VmbmkQMaoc1-21" value="" style="endArrow=none;dashed=1;html=1;rounded=0;entryX=0;entryY=0;entryDx=120;entryDy=25;entryPerimeter=0;" edge="1" parent="1" target="DzmFbw8f4VmbmkQMaoc1-20">
          <mxGeometry width="50" height="50" relative="1" as="geometry">
            <mxPoint x="363" y="239" as="sourcePoint" />
            <mxPoint x="410" y="240" as="targetPoint" />
          </mxGeometry>
        </mxCell>
        <mxCell id="DzmFbw8f4VmbmkQMaoc1-22" value="Date of Sunday of current week" style="shape=note2;boundedLbl=1;whiteSpace=wrap;html=1;size=16;verticalAlign=top;align=center;flipV=1;" vertex="1" parent="1">
          <mxGeometry x="170" y="250" width="120" height="70" as="geometry" />
        </mxCell>
        <mxCell id="DzmFbw8f4VmbmkQMaoc1-23" value="" style="endArrow=none;dashed=1;html=1;rounded=0;entryX=0;entryY=0;entryDx=120;entryDy=25;entryPerimeter=0;" edge="1" parent="1" target="DzmFbw8f4VmbmkQMaoc1-22">
          <mxGeometry width="50" height="50" relative="1" as="geometry">
            <mxPoint x="363" y="350" as="sourcePoint" />
            <mxPoint x="440" y="260" as="targetPoint" />
          </mxGeometry>
        </mxCell>
        <mxCell id="DzmFbw8f4VmbmkQMaoc1-26" value="loop" style="shape=umlFrame;whiteSpace=wrap;html=1;pointerEvents=0;" vertex="1" parent="1">
          <mxGeometry x="240" y="385" width="450" height="200" as="geometry" />
        </mxCell>
        <mxCell id="DzmFbw8f4VmbmkQMaoc1-27" value="[spendings]" style="text;html=1;align=center;verticalAlign=middle;resizable=0;points=[];autosize=1;strokeColor=none;fillColor=none;" vertex="1" parent="1">
          <mxGeometry x="322" y="383" width="80" height="30" as="geometry" />
        </mxCell>
        <mxCell id="DzmFbw8f4VmbmkQMaoc1-28" value=":Spending" style="shape=umlLifeline;perimeter=lifelinePerimeter;whiteSpace=wrap;html=1;container=1;dropTarget=0;collapsible=0;recursiveResize=0;outlineConnect=0;portConstraint=eastwest;newEdgeStyle={&quot;curved&quot;:0,&quot;rounded&quot;:0};" vertex="1" parent="1">
          <mxGeometry x="580" y="320" width="100" height="300" as="geometry" />
        </mxCell>
        <mxCell id="DzmFbw8f4VmbmkQMaoc1-33" value="" style="html=1;points=[[0,0,0,0,5],[0,1,0,0,-5],[1,0,0,0,5],[1,1,0,0,-5]];perimeter=orthogonalPerimeter;outlineConnect=0;targetShapes=umlLifeline;portConstraint=eastwest;newEdgeStyle={&quot;curved&quot;:0,&quot;rounded&quot;:0};" vertex="1" parent="DzmFbw8f4VmbmkQMaoc1-28">
          <mxGeometry x="45" y="95" width="10" height="35" as="geometry" />
        </mxCell>
        <mxCell id="DzmFbw8f4VmbmkQMaoc1-34" value="" style="html=1;verticalAlign=bottom;labelBackgroundColor=none;endArrow=block;endFill=1;rounded=0;" edge="1" parent="1" source="DzmFbw8f4VmbmkQMaoc1-4">
          <mxGeometry width="160" relative="1" as="geometry">
            <mxPoint x="340" y="415" as="sourcePoint" />
            <mxPoint x="625" y="415.17999999999995" as="targetPoint" />
          </mxGeometry>
        </mxCell>
        <mxCell id="DzmFbw8f4VmbmkQMaoc1-35" value="getDate()" style="edgeLabel;html=1;align=center;verticalAlign=middle;resizable=0;points=[];" vertex="1" connectable="0" parent="DzmFbw8f4VmbmkQMaoc1-34">
          <mxGeometry x="0.0459" y="-1" relative="1" as="geometry">
            <mxPoint x="-32" y="-9" as="offset" />
          </mxGeometry>
        </mxCell>
        <mxCell id="DzmFbw8f4VmbmkQMaoc1-36" value="" style="html=1;verticalAlign=bottom;labelBackgroundColor=none;endArrow=block;endFill=1;dashed=1;rounded=0;" edge="1" parent="1">
          <mxGeometry width="160" relative="1" as="geometry">
            <mxPoint x="625" y="449.5" as="sourcePoint" />
            <mxPoint x="325" y="449.5" as="targetPoint" />
          </mxGeometry>
        </mxCell>
        <mxCell id="DzmFbw8f4VmbmkQMaoc1-37" value="&lt;font style=&quot;font-size: 11px;&quot;&gt;date:LocalDate&lt;/font&gt;" style="text;html=1;align=center;verticalAlign=middle;resizable=0;points=[];autosize=1;strokeColor=none;fillColor=none;" vertex="1" parent="1">
          <mxGeometry x="402" y="428" width="100" height="30" as="geometry" />
        </mxCell>
        <mxCell id="DzmFbw8f4VmbmkQMaoc1-38" value="opt" style="shape=umlFrame;whiteSpace=wrap;html=1;pointerEvents=0;" vertex="1" parent="1">
          <mxGeometry x="250" y="470" width="430" height="100" as="geometry" />
        </mxCell>
        <mxCell id="DzmFbw8f4VmbmkQMaoc1-39" value="[date is between monday&amp;nbsp;&lt;div&gt;and sunday (inclusive)]&lt;/div&gt;" style="text;html=1;align=center;verticalAlign=middle;resizable=0;points=[];autosize=1;strokeColor=none;fillColor=none;" vertex="1" parent="1">
          <mxGeometry x="320" y="465" width="160" height="40" as="geometry" />
        </mxCell>
        <mxCell id="DzmFbw8f4VmbmkQMaoc1-40" value="" style="html=1;points=[[0,0,0,0,5],[0,1,0,0,-5],[1,0,0,0,5],[1,1,0,0,-5]];perimeter=orthogonalPerimeter;outlineConnect=0;targetShapes=umlLifeline;portConstraint=eastwest;newEdgeStyle={&quot;curved&quot;:0,&quot;rounded&quot;:0};" vertex="1" parent="1">
          <mxGeometry x="554" y="517" width="10" height="40" as="geometry" />
        </mxCell>
        <mxCell id="DzmFbw8f4VmbmkQMaoc1-42" value="" style="html=1;verticalAlign=bottom;labelBackgroundColor=none;endArrow=block;endFill=1;rounded=0;" edge="1" parent="1" target="DzmFbw8f4VmbmkQMaoc1-40">
          <mxGeometry width="160" relative="1" as="geometry">
            <mxPoint x="325" y="517" as="sourcePoint" />
            <mxPoint x="509" y="517" as="targetPoint" />
          </mxGeometry>
        </mxCell>
        <mxCell id="DzmFbw8f4VmbmkQMaoc1-43" value="append(...)" style="edgeLabel;html=1;align=center;verticalAlign=middle;resizable=0;points=[];" vertex="1" connectable="0" parent="DzmFbw8f4VmbmkQMaoc1-42">
          <mxGeometry x="-0.4477" relative="1" as="geometry">
            <mxPoint x="-29" y="-8" as="offset" />
          </mxGeometry>
        </mxCell>
        <mxCell id="DzmFbw8f4VmbmkQMaoc1-44" value="" style="html=1;verticalAlign=bottom;labelBackgroundColor=none;endArrow=block;endFill=1;dashed=1;rounded=0;" edge="1" parent="1">
          <mxGeometry width="160" relative="1" as="geometry">
            <mxPoint x="554" y="557" as="sourcePoint" />
            <mxPoint x="325" y="557" as="targetPoint" />
          </mxGeometry>
        </mxCell>
        <mxCell id="DzmFbw8f4VmbmkQMaoc1-49" value="" style="shape=umlDestroy;whiteSpace=wrap;html=1;strokeWidth=3;targetShapes=umlLifeline;" vertex="1" parent="1">
          <mxGeometry x="544" y="610" width="30" height="30" as="geometry" />
        </mxCell>
        <mxCell id="DzmFbw8f4VmbmkQMaoc1-50" value="" style="html=1;verticalAlign=bottom;labelBackgroundColor=none;endArrow=block;endFill=1;dashed=1;rounded=0;" edge="1" parent="1" source="DzmFbw8f4VmbmkQMaoc1-4">
          <mxGeometry width="160" relative="1" as="geometry">
            <mxPoint x="310.0000000000002" y="730" as="sourcePoint" />
            <mxPoint x="160" y="730" as="targetPoint" />
          </mxGeometry>
        </mxCell>
        <mxCell id="DzmFbw8f4VmbmkQMaoc1-51" value="&lt;b&gt;sd&lt;/b&gt;&amp;nbsp;printWeekly" style="shape=umlFrame;whiteSpace=wrap;html=1;pointerEvents=0;width=100;height=30;" vertex="1" parent="1">
          <mxGeometry x="80" y="20" width="670" height="740" as="geometry" />
        </mxCell>
      </root>
    </mxGraphModel>
  </diagram>
</mxfile>
